<?xml version="1.0" encoding="UTF-8"?>
<svg width="32" height="32" viewBox="0 0 32 32" fill="none" xmlns="http://www.w3.org/2000/svg">
  <rect width="32" height="32" rx="6" fill="#1E3A8A"/>
  <!-- Simplified OpenClawKit Logo: Lobster Claw -->
  <path d="M11 8C11 6.89543 11.8954 6 13 6H19C20.1046 6 21 6.89543 21 8V24C21 25.1046 20.1046 26 19 26H13C11.8954 26 11 25.1046 11 24V8Z" stroke="#FB7C4A" stroke-width="2"/>
  <path d="M11 12H7C5.89543 12 5 12.8954 5 14V18C5 19.1046 5.89543 20 7 20H11" stroke="#FB7C4A" stroke-width="2"/>
  <path d="M21 12H25C26.1046 12 27 12.8954 27 14V18C27 19.1046 26.1046 20 25 20H21" stroke="#FB7C4A" stroke-width="2"/>
  <path d="M7 13V13C5.89543 13 5 12.1046 5 11V10" stroke="#FB7C4A" stroke-width="2"/>
  <path d="M7 19V19C5.89543 19 5 19.8954 5 21V22" stroke="#FB7C4A" stroke-width="2"/>
  <path d="M25 13V13C26.1046 13 27 12.1046 27 11V10" stroke="#FB7C4A" stroke-width="2"/>
  <path d="M25 19V19C26.1046 19 27 19.8954 27 21V22" stroke="#FB7C4A" stroke-width="2"/>
</svg>