<?xml version="1.0" encoding="UTF-8"?>
<svg width="48" height="48" viewBox="0 0 48 48" fill="none" xmlns="http://www.w3.org/2000/svg">
  <circle cx="24" cy="24" r="24" fill="#B4E1DE"/>
  <path d="M34 24C34 25.1046 33.1046 26 32 26C30.8954 26 30 25.1046 30 24C30 22.8954 30.8954 22 32 22C33.1046 22 34 22.8954 34 24Z" stroke="#106470" stroke-width="2" stroke-linecap="round" stroke-linejoin="round"/>
  <path d="M26 24C26 25.1046 25.1046 26 24 26C22.8954 26 22 25.1046 22 24C22 22.8954 22.8954 22 24 22C25.1046 22 26 22.8954 26 24Z" stroke="#106470" stroke-width="2" stroke-linecap="round" stroke-linejoin="round"/>
  <path d="M18 24C18 25.1046 17.1046 26 16 26C14.8954 26 14 25.1046 14 24C14 22.8954 14.8954 22 16 22C17.1046 22 18 22.8954 18 24Z" stroke="#106470" stroke-width="2" stroke-linecap="round" stroke-linejoin="round"/>
  <path d="M30 24H26" stroke="#106470" stroke-width="2" stroke-linecap="round" stroke-linejoin="round"/>
  <path d="M22 24H18" stroke="#106470" stroke-width="2" stroke-linecap="round" stroke-linejoin="round"/>
</svg>