<?xml version="1.0" encoding="UTF-8"?>
<svg width="240" height="60" viewBox="0 0 240 60" fill="none" xmlns="http://www.w3.org/2000/svg">
  <!-- Background shape with rounded corners -->
  <rect width="240" height="60" rx="10" fill="#1E3A8A"/>
  
  <!-- OpenClawKit text -->
  <path d="M30 21C30 18.7909 31.7909 17 34 17H43C45.2091 17 47 18.7909 47 21V39C47 41.2091 45.2091 43 43 43H34C31.7909 43 30 41.2091 30 39V21Z" stroke="white" stroke-width="2"/>
  <path d="M47 25H53C55.7614 25 58 27.2386 58 30V30C58 32.7614 55.7614 35 53 35H47V25Z" stroke="white" stroke-width="2"/>
  <path d="M57 35L64 43" stroke="white" stroke-width="2"/>
  <path d="M57 25L64 17" stroke="white" stroke-width="2"/>
  <path d="M67 18L67 42" stroke="white" stroke-width="2"/>
  <path d="M84 20L77 40" stroke="white" stroke-width="2"/>
  <path d="M91 20L84 40" stroke="white" stroke-width="2"/>
  <path d="M76 30H92" stroke="white" stroke-width="2"/>
  <path d="M94 18L94 42" stroke="white" stroke-width="2"/>
  <path d="M94 18L109 18" stroke="white" stroke-width="2"/>
  <path d="M94 30L104 30" stroke="white" stroke-width="2"/>
  <path d="M94 42L109 42" stroke="white" stroke-width="2"/>
  <path d="M110 18L110 42" stroke="white" stroke-width="2"/>
  <path d="M110 18L123 18" stroke="white" stroke-width="2"/>
  <path d="M110 30L120 30" stroke="white" stroke-width="2"/>
  <path d="M110 42L123 42" stroke="white" stroke-width="2"/>
  <path d="M132 19.5L140 19.5" stroke="#FB7C4A" stroke-width="2"/>
  <path d="M128 23L144 23" stroke="#FB7C4A" stroke-width="2"/>
  <path d="M126 26.5L146 26.5" stroke="#FB7C4A" stroke-width="2"/>
  <path d="M125 30L147 30" stroke="#FB7C4A" stroke-width="2"/>
  <path d="M126 33.5L146 33.5" stroke="#FB7C4A" stroke-width="2"/>
  <path d="M128 37L144 37" stroke="#FB7C4A" stroke-width="2"/>
  <path d="M132 40.5L140 40.5" stroke="#FB7C4A" stroke-width="2"/>
  <path d="M150 18L150 42" stroke="white" stroke-width="2"/>
  <path d="M150 18L159 30L150 42" stroke="white" stroke-width="2"/>
  <path d="M163 18L163 42" stroke="white" stroke-width="2"/>
  <path d="M171 18L180 18L180 42L171 42L171 18Z" stroke="white" stroke-width="2"/>
  <path d="M184 18L184 42" stroke="white" stroke-width="2"/>
  <path d="M192 18L201 42" stroke="white" stroke-width="2"/>
  <path d="M201 18L192 42" stroke="white" stroke-width="2"/>
  
  <!-- Lobster Icon -->
  <path d="M214 20C214 18.8954 214.895 18 216 18H224C225.105 18 226 18.8954 226 20V40C226 41.1046 225.105 42 224 42H216C214.895 42 214 41.1046 214 40V20Z" stroke="#FB7C4A" stroke-width="2"/>
  <path d="M214 24H209C207.895 24 207 24.8954 207 26V34C207 35.1046 207.895 36 209 36H214" stroke="#FB7C4A" stroke-width="2"/>
  <path d="M226 24H231C232.105 24 233 24.8954 233 26V34C233 35.1046 232.105 36 231 36H226" stroke="#FB7C4A" stroke-width="2"/>
  <path d="M209 25V25C207.895 25 207 24.1046 207 23V22" stroke="#FB7C4A" stroke-width="2"/>
  <path d="M209 35V35C207.895 35 207 35.8954 207 37V38" stroke="#FB7C4A" stroke-width="2"/>
  <path d="M231 25V25C232.105 25 233 24.1046 233 23V22" stroke="#FB7C4A" stroke-width="2"/>
  <path d="M231 35V35C232.105 35 233 35.8954 233 37V38" stroke="#FB7C4A" stroke-width="2"/>

  <!-- "AI, Simplified" tagline -->
  <text x="120" y="55" font-family="Inter, sans-serif" font-size="9" font-weight="500" fill="white" text-anchor="middle">OpenClaw AI, Simplified</text>
</svg>