<?xml version="1.0" encoding="UTF-8"?>
<svg width="96" height="24" viewBox="0 0 96 24" fill="none" xmlns="http://www.w3.org/2000/svg">
  <path d="M12 4H6C4.89543 4 4 4.89543 4 6V18C4 19.1046 4.89543 20 6 20H18C19.1046 20 20 19.1046 20 18V12" stroke="#106470" stroke-width="1.5" stroke-linecap="round" stroke-linejoin="round"/>
  <path d="M11 13L20 4" stroke="#106470" stroke-width="1.5" stroke-linecap="round" stroke-linejoin="round"/>
  <path d="M15 4H20V9" stroke="#106470" stroke-width="1.5" stroke-linecap="round" stroke-linejoin="round"/>
  <path d="M32 6.5C32 5.11929 33.1193 4 34.5 4H43.5C44.8807 4 46 5.11929 46 6.5V17.5C46 18.8807 44.8807 20 43.5 20H34.5C33.1193 20 32 18.8807 32 17.5V6.5Z" stroke="#106470" stroke-width="1.5" stroke-linecap="round" stroke-linejoin="round"/>
  <path d="M39 13C40.1046 13 41 12.1046 41 11C41 9.89543 40.1046 9 39 9C37.8954 9 37 9.89543 37 11C37 12.1046 37.8954 13 39 13Z" stroke="#106470" stroke-width="1.5" stroke-linecap="round" stroke-linejoin="round"/>
  <path d="M35 17C35.8362 15.7835 37.3373 15 39 15C40.6627 15 42.1638 15.7835 43 17" stroke="#106470" stroke-width="1.5" stroke-linecap="round" stroke-linejoin="round"/>
  <path d="M58 6.5H54M58 12H54M58 17.5H54" stroke="#106470" stroke-width="1.5" stroke-linecap="round" stroke-linejoin="round"/>
  <path d="M65 6.5H68.5C69.8807 6.5 71 7.61929 71 9V9C71 10.3807 69.8807 11.5 68.5 11.5H65V6.5Z" stroke="#106470" stroke-width="1.5" stroke-linecap="round" stroke-linejoin="round"/>
  <path d="M65 11.5H69.5C70.8807 11.5 72 12.6193 72 14V14C72 15.3807 70.8807 16.5 69.5 16.5H65V11.5Z" stroke="#106470" stroke-width="1.5" stroke-linecap="round" stroke-linejoin="round"/>
  <path d="M83 4L77 20" stroke="#106470" stroke-width="1.5" stroke-linecap="round" stroke-linejoin="round"/>
  <path d="M87 8L92 12L87 16" stroke="#106470" stroke-width="1.5" stroke-linecap="round" stroke-linejoin="round"/>
  <path d="M73 8L78 12L73 16" stroke="#106470" stroke-width="1.5" stroke-linecap="round" stroke-linejoin="round"/>
</svg>